<svg xmlns="http://www.w3.org/2000/svg" xmlns:xlink="http://www.w3.org/1999/xlink" version="1.1" x="0px" y="0px" viewBox="0 0 100 125" style="enable-background:new 0 0 100 100;" xml:space="preserve"><g><path d="M29.9,58.4c3.8,3.8,8.9,5.9,14.3,5.9c5.4,0,10.4-2.1,14.3-5.9c2.1-2.1,3.7-4.7,4.8-7.5c0.5-1.3-0.2-2.7-1.5-3.2   c-1.3-0.5-2.7,0.2-3.2,1.5c-0.8,2.1-2,4-3.6,5.7c-2.9,2.9-6.7,4.4-10.7,4.4s-7.9-1.6-10.7-4.4L20.9,42.4c-2.9-2.9-4.4-6.7-4.4-10.7   s1.6-7.9,4.4-10.7c5.9-5.9,15.5-5.9,21.4,0l11.7,11.7c1,1,2.6,1,3.5,0c1-1,1-2.6,0-3.5L45.9,17.4c-7.9-7.9-20.7-7.9-28.5,0   c-3.8,3.8-5.9,8.9-5.9,14.3s2.1,10.4,5.9,14.3L29.9,58.4z"/><path d="M57.6,79.1L45.9,67.4c-1-1-2.6-1-3.5,0c-1,1-1,2.6,0,3.5l11.7,11.7c3.9,3.9,9.1,5.9,14.3,5.9s10.3-2,14.3-5.9   c3.8-3.8,5.9-8.9,5.9-14.3s-2.1-10.4-5.9-14.3L70.1,41.6c-3.8-3.8-8.9-5.9-14.3-5.9c-5.4,0-10.4,2.1-14.3,5.9   c-2.1,2.1-3.7,4.7-4.8,7.5c-0.5,1.3,0.2,2.7,1.5,3.2c1.3,0.5,2.7-0.2,3.2-1.5c0.8-2.1,2-4,3.6-5.7c2.9-2.9,6.7-4.4,10.7-4.4   s7.9,1.6,10.7,4.4l12.5,12.5c2.9,2.9,4.4,6.7,4.4,10.7s-1.6,7.9-4.4,10.7C73.1,85,63.5,85,57.6,79.1z"/></g></svg>
